<svg width="362" height="364" viewBox="0 0 362 364" fill="none" xmlns="http://www.w3.org/2000/svg">
<path d="M82.5764 24.0686L84.3498 59.5588M82.5764 24.0686L121.591 37.8211M82.5764 24.0686L36.468 61.3333M82.5764 24.0686L122.726 9.87255M82.5764 24.0686L122.478 19.6324M86.1232 95.049L102.084 127.877M86.1232 95.049L133.118 111.463M86.1232 95.049H133.118M86.1232 95.049L84.3498 59.5588M86.1232 95.049L122.726 73.6839M86.1232 95.049V127.877M86.1232 95.049L34.6946 114.569M86.1232 95.049L36.468 61.3333M86.1232 95.049L43.5616 96.8235M1 134.088L31.1478 180.225M1 134.088L43.5616 150.059M1 134.088L34.6946 114.569M1 134.088L36.468 61.3333M1 134.088L6.3202 201.52M61.2956 221.039L29.3744 258.304M61.2956 221.039L86.1232 160.706M61.2956 221.039L89.6699 219.265M61.2956 221.039L31.1478 180.225M61.2956 221.039L94.1034 242.333M61.2956 221.039L30.2611 219.265M61.2956 221.039L59.9655 195.752M61.2956 221.039L87.8966 189.985M61.2956 221.039L66.0701 245.882M29.3744 258.304L70.1626 267.176M29.3744 258.304L80.803 308.877M29.3744 258.304L6.3202 201.52M29.3744 258.304L30.2611 219.265M29.3744 258.304L13.4138 248.544M29.3744 258.304L32.9212 295.569M80.803 308.877L102.084 289.391M80.803 308.877L70.1626 267.176M80.803 308.877L125.138 331.946M80.803 308.877L106.517 304.441M80.803 308.877L66.0701 328.397M80.803 308.877L32.9212 295.569M80.803 308.877L102.084 348.804M86.1232 160.706H118.044M86.1232 160.706L118.044 189.098M86.1232 160.706L43.5616 150.059M86.1232 160.706V127.877M86.1232 160.706L58.6355 170.466M86.1232 160.706L59.9655 195.752M86.1232 160.706L87.8966 189.985M174.793 283.147L209.268 261.853M174.793 283.147V248.544M174.793 283.147L150.852 273.387M174.793 283.147L206.714 292.907M174.793 283.147L165.039 308.877M238.635 302.667L209.268 261.853M238.635 302.667L206.714 292.907M238.635 302.667L259.916 280.095M238.635 302.667L267.01 334.608M238.635 302.667L228.882 331.946M238.635 302.667L274.103 306.216M238.635 302.667L217.355 312.426M238.635 302.667L282.084 255.642M325.532 318.637L282.084 255.642M325.532 318.637L259.916 281.373M325.532 318.637L267.01 334.608M325.532 318.637L274.103 306.216M325.532 318.637L317.552 259.191M325.532 318.637L345.039 281.373L357.453 252.98M325.532 318.637L288.291 343.48M325.532 318.637L332.626 273.387M211.148 363L196.074 322.186M211.148 363L176.567 328.397M211.148 363L267.01 334.608M211.148 363L228.882 331.946M211.148 363L256.369 355.902M211.148 363H144.645M325.532 208.618L268.287 235.235M325.532 208.618L282.084 255.642M325.532 208.618L282.527 173.349M325.532 208.618L317.552 259.191M325.532 208.618L288.291 209.949M325.532 208.618L286.074 197.305M325.532 208.618L321.985 184.662M325.532 208.618L361 187.324M325.532 208.618L361 225.254M174.793 213.941L158.833 180.225M174.793 213.941L208.488 187.324M174.793 213.941L212.921 212.61M174.793 213.941L146.419 215.716M174.793 213.941V248.544M174.793 213.941L150.852 238.784M174.793 213.941L192.031 237.897M174.793 213.941L202.476 225.254M174.793 213.941L183.66 183.775M209.268 261.853L268.287 235.235M209.268 261.853L282.084 255.642M209.268 261.853L230.159 236.566M209.268 261.853L174.793 248.544M209.268 261.853L206.714 292.907M209.268 261.853L259.916 280.095M209.268 261.853L192.031 237.897M126.911 263.627L174.793 248.544M126.911 263.627L150.852 238.784M126.911 263.627L94.1034 242.333M126.911 263.627L134.005 295.569M126.911 263.627L102.084 289.391M126.911 263.627L150.852 273.387M126.911 263.627L98.5369 265.402M70.1626 267.176L94.1034 242.333M70.1626 267.176L86.2937 279.171M70.1626 267.176L98.5369 265.402M70.1626 267.176L66.0701 245.882M118.044 217.49L158.833 180.225M118.044 217.49L89.6699 219.265M118.044 217.49V189.098M118.044 217.49L146.419 215.716M118.044 217.49L94.1034 242.333M118.044 217.49L150.852 238.784M118.044 160.706L158.833 180.225M118.044 160.706H180.113M118.044 160.706L102.084 127.877M118.044 160.706V189.098M118.044 160.706L86.1232 127.877M118.044 160.706L141.099 144.292M242.182 160.706L246.616 185.993M242.182 160.706L158.833 180.225M242.182 160.706H180.113M242.182 160.706L211.148 144.292M242.182 160.706L243.956 113.238M242.182 160.706H280.31M242.182 160.706L208.488 187.324M242.182 160.706L282.527 173.349M242.182 160.706L262.133 136.972M251.049 211.279L246.616 185.993M251.049 211.279L268.287 235.235M251.049 211.279L212.921 212.61M251.049 211.279L208.488 187.324M251.049 211.279L230.159 236.566M251.049 211.279L288.291 209.949M251.049 211.279L286.074 197.305M251.049 211.279L202.476 225.254M318.438 160.706H280.31M318.438 160.706L282.527 173.349M318.438 160.706L321.985 184.662M318.438 160.706L293.167 130.539M318.438 160.706L361 187.324M318.438 160.706L336.172 153.608M318.438 160.706L313.118 129.652M246.616 185.993L282.527 173.349M246.616 185.993L286.074 197.305M158.833 180.225L180.113 160.706M158.833 180.225L146.419 215.716M158.833 180.225L118.044 189.098M158.833 180.225L183.66 183.775M268.287 235.235L282.084 255.642M268.287 235.235L288.291 209.949M268.287 235.235L230.159 236.566M282.084 255.642L259.916 280.095M282.084 255.642L317.552 259.191M180.113 160.706V127.877M180.113 160.706L141.099 144.292M180.113 160.706L211.148 144.292M102.084 127.877H180.113M102.084 127.877L141.099 144.292M102.084 127.877L133.118 111.463M180.113 127.877L211.148 144.292M180.113 127.877V95.049M180.113 127.877L133.118 111.463M180.113 127.877L212.034 120.558M180.113 127.877L141.099 144.292M307.798 98.598L275.877 105.918M307.798 98.598L293.167 130.539M307.798 98.598L305.255 84.1801M307.798 98.598L287.404 78.1912M307.798 98.598L313.118 129.652M307.798 98.598L355.68 126.99M243.956 113.238L211.148 144.292M243.956 113.238L212.034 120.558M243.956 113.238L180.113 95.049M243.956 113.238L275.877 105.918M243.956 113.238L272.33 87.951M243.956 113.238L262.133 136.972M243.956 113.238L237.749 90.6127M211.148 144.292L212.034 120.558M280.31 160.706L262.133 136.972M280.31 160.706L293.167 130.539M180.113 95.049L133.118 111.463M180.113 95.049L212.034 120.558M180.113 95.049L226.222 91.5M180.113 95.049H133.118M180.113 95.049L194.522 61.1115M180.113 95.049L210.372 76.3058M180.113 95.049L170.36 73.3113M133.118 111.463V95.049M272.33 87.951L275.877 105.918M272.33 87.951L249.276 89.7255M272.33 87.951L256.148 78.8566M272.33 87.951L270.446 65.6587M272.33 87.951L287.404 78.1912M275.877 105.918L262.133 136.972M275.877 105.918L293.167 130.539M275.877 105.918L287.404 78.1912M302.478 68.4314L287.404 78.1912M302.478 68.4314L284.744 52.4608M302.478 68.4314L305.255 84.1801M302.478 68.4314L293.167 33.3848M302.478 68.4314L346.813 84.1801M302.478 68.4314L316.665 52.4608M302.478 68.4314L325.532 95.049M262.133 136.972L293.167 130.539M235.089 8.09804L230.655 49.799M235.089 8.09804L245.715 26.7165M235.089 8.09804L216.468 18.9669M235.089 8.09804L262.133 32.9412M235.089 8.09804L197.847 11.6471M235.089 8.09804L259.916 15.1961M235.089 8.09804L199.621 1M226.222 91.5L228.438 70.6495M226.222 91.5L210.372 76.3058M226.222 91.5L237.749 90.6127M230.655 49.799L239.966 69.7623M230.655 49.799L228.438 70.6495M230.655 49.799L250.55 57.7289M230.655 49.799L245.715 26.7165M230.655 49.799L194.522 61.1115M230.655 49.799L216.468 18.9669M230.655 49.799L213.42 47.6363M249.276 89.7255L239.966 69.7623M249.276 89.7255L237.749 90.6127M239.966 69.7623L228.438 70.6495M239.966 69.7623L256.148 78.8566M228.438 70.6495L194.522 61.1115M256.148 78.8566L270.446 65.6587M284.744 52.4608L270.446 65.6587M284.744 52.4608L262.133 32.9412M284.744 52.4608L293.167 33.3848M270.446 65.6587L287.404 78.1912M270.446 65.6587L250.55 57.7289M287.404 78.1912L305.255 84.1801M250.55 57.7289L256.342 45.335M262.133 32.9412L256.342 45.335M262.133 32.9412L259.916 15.1961M262.133 32.9412L293.167 33.3848M256.342 45.335L245.715 26.7165M160.606 51.5735L194.522 61.1115M160.606 51.5735L197.847 29.8358M160.606 51.5735L133.118 95.049M160.606 51.5735L170.36 73.3113M160.606 51.5735L84.3498 59.5588M160.606 51.5735L122.726 73.6839M160.606 51.5735L161.493 33.3848M160.606 51.5735L139.325 44.0722M194.522 61.1115L196.185 45.4737M194.522 61.1115L210.372 76.3058M194.522 61.1115L170.36 73.3113M197.847 29.8358L196.185 45.4737M197.847 29.8358L216.468 18.9669M197.847 29.8358L161.493 33.3848M197.847 29.8358L180.113 22.5159M196.185 45.4737L216.468 18.9669M196.185 45.4737L213.42 47.6363M216.468 18.9669L213.42 47.6363M216.468 18.9669L197.847 11.6471M133.118 95.049L151.739 84.1801L170.36 73.3113M133.118 95.049L122.726 73.6839M89.6699 219.265L118.044 189.098M89.6699 219.265L87.8966 189.985M118.044 189.098L87.8966 189.985M208.488 187.324L212.921 212.61M208.488 187.324L183.66 183.775M230.159 236.566L192.031 237.897M230.159 236.566L202.476 225.254M84.3498 59.5588L122.726 73.6839M84.3498 59.5588L121.591 37.8211M84.3498 59.5588L36.468 61.3333M121.591 37.8211L162.379 15.1961M121.591 37.8211L139.325 44.0722M162.379 15.1961L161.493 33.3848M162.379 15.1961L180.113 22.5159M162.379 15.1961L197.847 11.6471M162.379 15.1961L122.478 19.6324M162.379 15.1961L122.726 9.87255M162.379 15.1961V2.77451M161.493 33.3848L139.325 44.0722M180.113 22.5159L197.847 11.6471M197.847 11.6471L199.621 1M197.847 11.6471L162.379 2.77451M282.527 173.349L286.074 197.305M282.527 173.349L321.985 184.662M196.074 322.186L176.567 328.397M196.074 322.186L217.355 312.426M196.074 322.186L228.882 331.946M196.074 322.186L206.714 292.907M196.074 322.186L165.039 308.877M31.1478 180.225L6.3202 201.52M31.1478 180.225L30.2611 219.265M31.1478 180.225L58.6355 170.466M31.1478 180.225L43.5616 150.059M94.1034 242.333L150.852 238.784M94.1034 242.333L66.0701 245.882M43.5616 150.059L86.1232 127.877M43.5616 150.059L34.6946 114.569M43.5616 150.059L58.6355 170.466M86.1232 127.877L34.6946 114.569M34.6946 114.569L43.5616 96.8235M36.468 61.3333L43.5616 96.8235M134.005 295.569L102.084 289.391M134.005 295.569L150.852 273.387M134.005 295.569L176.567 328.397M134.005 295.569L165.039 308.877M134.005 295.569L125.138 331.946M134.005 295.569L106.517 304.441M102.084 289.391L86.2937 279.171M102.084 289.391L106.517 304.441M102.084 289.391L98.5369 265.402M150.852 273.387L165.039 308.877M86.2937 279.171L98.5369 265.402M206.714 292.907L165.039 308.877M267.01 334.608L228.882 331.946M267.01 334.608L274.103 306.216M267.01 334.608L288.291 343.48M267.01 334.608L256.369 355.902M176.567 328.397L125.138 331.946M176.567 328.397L144.645 363M228.882 331.946L217.355 312.426M317.552 259.191L361 225.254M317.552 259.191L357.453 252.98M317.552 259.191L332.626 273.387M6.3202 201.52L13.4138 248.544M58.6355 170.466L59.9655 195.752M125.138 331.946L106.517 304.441M125.138 331.946L102.084 348.804M125.138 331.946L144.645 363M288.291 209.949L286.074 197.305M321.985 184.662L361 187.324M355.68 126.99L361 187.324M355.68 126.99L336.172 153.608M355.68 126.99L313.118 129.652M355.68 126.99L346.813 84.1801M355.68 126.99L325.532 95.049M361 187.324L336.172 153.608M361 187.324V225.254M357.453 252.98L361 225.254M357.453 252.98L332.626 273.387M346.813 84.1801L316.665 52.4608M346.813 84.1801L325.532 95.049M316.665 52.4608L293.167 33.3848M293.167 33.3848L259.916 15.1961M122.726 9.87255L162.379 2.77451M122.726 9.87255L122.478 19.6324M162.379 2.77451L199.621 1M288.291 343.48L256.369 355.902M13.4138 248.544L32.9212 295.569M32.9212 295.569L66.0701 328.397M66.0701 328.397L102.084 348.804M102.084 348.804L144.645 363" stroke="white"/>
</svg>
