<svg width="64" height="58" viewBox="0 0 64 58" fill="none" xmlns="http://www.w3.org/2000/svg">
<path d="M38.7209 38.4891H25.3921L21.7871 19.498H41.9508L38.7209 38.4891ZM2.07517 0C2.06665 0 2.05812 0 2.04747 0C0.916142 0 0 0.923567 0 2.06406C0 2.1822 0.0106527 2.29818 0.0276972 2.40986L0.0255667 2.39698L8.72679 55.6524C8.95476 56.9841 10.0861 57.985 11.4518 58H53.2002C53.2066 58 53.2151 58 53.2215 58C54.2399 58 55.0857 57.2547 55.2519 56.2753L55.254 56.2624L63.9744 2.41416C63.9915 2.31536 64 2.19938 64 2.0834C64 0.942897 63.0839 0.0193306 61.9525 0.0193306C61.944 0.0193306 61.9334 0.0193306 61.9248 0.0193306L2.07517 0Z" fill="black"/>
</svg>
