<svg width="62" height="56" viewBox="0 0 62 56" fill="none" xmlns="http://www.w3.org/2000/svg">
<path d="M2.0121 0.00016681C1.72216 -0.00359902 1.43492 0.0564384 1.17055 0.176063C0.906175 0.295687 0.671079 0.471997 0.481772 0.692611C0.292464 0.913226 0.153536 1.17279 0.0747442 1.45309C-0.00404781 1.73338 -0.0207932 2.0276 0.025684 2.31509L8.45838 53.735C8.56342 54.3643 8.88585 54.9362 9.36902 55.3504C9.85219 55.7646 10.4652 55.9946 11.1004 55.9998H51.5553C52.0314 56.0059 52.4938 55.84 52.8584 55.5324C53.2229 55.2248 53.4653 54.7958 53.5415 54.3237L61.9744 2.32506C62.0208 2.03759 62.004 1.7434 61.9251 1.46315C61.8463 1.1829 61.7073 0.923384 61.518 0.702821C61.3287 0.482259 61.0936 0.306 60.8292 0.18642C60.5649 0.0668397 60.2776 0.00683775 59.9877 0.0106273L2.0121 0.00016681ZM37.5206 37.1635H24.6084L21.1122 18.8163H40.6494L37.5206 37.1635Z" fill="#2684FF"/>
<path d="M59.2413 18.7905H40.6133L37.4869 37.1231H24.5851L9.3511 55.2861C9.83395 55.7054 10.4495 55.9386 11.0878 55.9439H51.5204C51.9962 55.95 52.4583 55.7843 52.8226 55.477C53.187 55.1696 53.4293 54.741 53.5054 54.2692L59.2413 18.7905Z" fill="url(#paint0_linear_102_516)"/>
<defs>
<linearGradient id="paint0_linear_102_516" x1="13988.6" y1="1203.85" x2="8224.78" y2="8495.44" gradientUnits="userSpaceOnUse">
<stop offset="0.18" stop-color="#0052CC"/>
<stop offset="1" stop-color="#2684FF"/>
</linearGradient>
</defs>
</svg>
