<svg width="64" height="64" viewBox="0 0 64 64" fill="none" xmlns="http://www.w3.org/2000/svg">
<path fill-rule="evenodd" clip-rule="evenodd" d="M32.0265 0C14.3167 0 0 14.6666 0 32.8112C0 47.3151 9.17318 59.5924 21.8988 63.9377C23.4898 64.2644 24.0726 63.2317 24.0726 62.3631C24.0726 61.6024 24.0202 58.9951 24.0202 56.2784C15.1112 58.2344 13.256 52.3671 13.256 52.3671C11.8242 48.5645 9.70287 47.5871 9.70287 47.5871C6.78696 45.5771 9.91527 45.5771 9.91527 45.5771C13.1498 45.7945 14.847 48.9451 14.847 48.9451C17.7098 53.9424 22.323 52.5304 24.1788 51.6611C24.4437 49.5425 25.2926 48.0758 26.194 47.2611C19.0884 46.5005 11.6125 43.6758 11.6125 31.0725C11.6125 27.4872 12.8843 24.5539 14.8995 22.2726C14.5815 21.4579 13.4677 18.0893 15.2181 13.5806C15.2181 13.5806 17.9222 12.7113 24.0195 16.9486C26.63 16.2304 29.3222 15.865 32.0265 15.8619C34.7306 15.8619 37.4873 16.2426 40.0328 16.9486C46.1307 12.7113 48.8349 13.5806 48.8349 13.5806C50.5852 18.0893 49.4708 21.4579 49.1528 22.2726C51.2211 24.5539 52.4405 27.4872 52.4405 31.0725C52.4405 43.6758 44.9645 46.4458 37.8059 47.2611C38.9727 48.2931 39.9797 50.2485 39.9797 53.3451C39.9797 57.7451 39.9272 61.2764 39.9272 62.3624C39.9272 63.2317 40.5107 64.2644 42.101 63.9384C54.8267 59.5918 63.9999 47.3151 63.9999 32.8112C64.0523 14.6666 49.6832 0 32.0265 0Z" fill="black"/>
</svg>
