<svg width="61" height="59" viewBox="0 0 61 59" fill="none" xmlns="http://www.w3.org/2000/svg">
<path d="M59.727 23.1539L59.6416 22.9357L51.3747 1.36077C51.2065 0.937908 50.9087 0.579196 50.524 0.336099C50.139 0.0971311 49.69 -0.0179635 49.2376 0.00635516C48.7851 0.0306739 48.3511 0.193235 47.9939 0.472089C47.6408 0.758949 47.3846 1.14765 47.2602 1.58531L41.6783 18.6631H19.0755L13.4936 1.58531C13.3725 1.14527 13.1158 0.754617 12.7599 0.468925C12.4028 0.190071 11.9687 0.0275106 11.5163 0.00319193C11.0638 -0.0211268 10.6148 0.0939678 10.2298 0.332935C9.846 0.577015 9.54844 0.935413 9.37912 1.3576L1.09638 22.9231L1.01416 23.1413C-0.175905 26.2507 -0.322799 29.6628 0.595623 32.863C1.51405 36.0632 3.44799 38.8781 6.10587 40.8832L6.13434 40.9054L6.21024 40.9591L18.8035 50.3899L25.0338 55.1053L28.8288 57.9705C29.2728 58.3076 29.8148 58.49 30.3722 58.49C30.9295 58.49 31.4716 58.3076 31.9155 57.9705L35.7106 55.1053L41.9408 50.3899L54.61 40.9022L54.6416 40.8769C57.2936 38.8714 59.223 36.0594 60.14 32.8635C61.0571 29.6676 60.9121 26.2604 59.727 23.1539Z" fill="#E24329"/>
<path d="M59.727 23.1539L59.6416 22.9357C55.6135 23.7626 51.8176 25.4688 48.5252 27.9326L30.369 41.6612C36.5518 46.3387 41.9345 50.4026 41.9345 50.4026L54.6037 40.9149L54.6353 40.8896C57.291 38.8842 59.2235 36.0704 60.1418 32.8717C61.0601 29.6731 60.9145 26.2627 59.727 23.1539Z" fill="#FC6D26"/>
<path d="M18.8036 50.4025L25.0338 55.1179L28.8289 57.9832C29.2728 58.3202 29.8148 58.5027 30.3722 58.5027C30.9296 58.5027 31.4716 58.3202 31.9155 57.9832L35.7106 55.1179L41.9408 50.4025C41.9408 50.4025 36.5518 46.326 30.369 41.6612C24.1862 46.326 18.8036 50.4025 18.8036 50.4025Z" fill="#FCA326"/>
<path d="M12.2096 27.9326C8.9199 25.4637 5.12486 23.753 1.09638 22.9231L1.01416 23.1413C-0.175905 26.2507 -0.322799 29.6628 0.595623 32.863C1.51405 36.0632 3.44799 38.8781 6.10587 40.8832L6.13434 40.9054L6.21024 40.9591L18.8035 50.3899C18.8035 50.3899 24.1799 46.326 30.369 41.6486L12.2096 27.9326Z" fill="#FC6D26"/>
</svg>
