<svg width="64" height="59" viewBox="0 0 64 59" fill="none" xmlns="http://www.w3.org/2000/svg">
<path d="M32.0003 59L20.2165 22.7118H43.7841L32.0003 59ZM32.0003 59L3.69994 22.7118H20.2165L32.0003 59ZM3.69994 22.7118L32.0003 59L1.00376 36.4677C0.587307 36.1642 0.277515 35.7367 0.118758 35.2463C-0.039999 34.7559 -0.0395748 34.2278 0.11997 33.7376L3.69994 22.7118ZM3.69994 22.7118L10.799 0.852364C10.8775 0.60639 11.0321 0.391747 11.2405 0.239442C11.4488 0.0871375 11.7002 0.00505642 11.9582 0.00505642C12.2163 0.00505642 12.4676 0.0871375 12.676 0.239442C12.8843 0.391747 13.0389 0.60639 13.1174 0.852364L20.2165 22.7118H3.69994ZM32.0003 59L43.7841 22.7118H60.2975L32.0003 59ZM60.2975 22.7118L63.8806 33.7376C64.0399 34.2281 64.0398 34.7564 63.8804 35.2469C63.7211 35.7373 63.4107 36.1647 62.9936 36.4677L32.0003 59L60.2975 22.7118ZM60.2975 22.7118H43.7841L50.88 0.852364C50.9577 0.605186 51.1121 0.389248 51.3209 0.235953C51.5297 0.0826578 51.7818 0 52.0408 0C52.2997 0 52.5519 0.0826578 52.7607 0.235953C52.9694 0.389248 53.1239 0.605186 53.2016 0.852364L60.2975 22.7118Z" fill="black"/>
</svg>
