<svg width="190" height="261" viewBox="0 0 190 261" fill="none" xmlns="http://www.w3.org/2000/svg">
<path fill-rule="evenodd" clip-rule="evenodd" d="M32.8969 199.811C28.5418 194.828 24.9952 187.905 22.5032 177.527L26.8667 176.473C29.237 186.345 32.5161 192.547 36.2725 196.845C40.0323 201.147 44.4103 203.708 49.3224 206.101C50.4733 206.662 51.6516 207.212 52.8512 207.772C61.9393 212.013 72.2528 216.826 81.1994 231.316L77.3832 233.684C69.1682 220.379 59.9897 216.083 50.986 211.869C49.7734 211.301 48.564 210.735 47.3606 210.149C42.2677 207.667 37.2486 204.79 32.8969 199.811Z" fill="black"/>
<path d="M29.9213 18.75C29.9213 8.39466 38.2939 0 48.622 0C58.9502 0 67.3228 8.39466 67.3228 18.75C67.3228 29.1053 58.9502 37.5 48.622 37.5C38.2939 37.5 29.9213 29.1053 29.9213 18.75Z" fill="#A67EB0"/>
<path fill-rule="evenodd" clip-rule="evenodd" d="M33.6614 18.75C33.6614 27.0343 40.3595 33.75 48.622 33.75C56.8846 33.75 63.5827 27.0343 63.5827 18.75C63.5827 10.4657 56.8846 3.75 48.622 3.75C40.3595 3.75 33.6614 10.4657 33.6614 18.75ZM48.622 0C38.2939 0 29.9213 8.39466 29.9213 18.75C29.9213 29.1053 38.2939 37.5 48.622 37.5C58.9502 37.5 67.3228 29.1053 67.3228 18.75C67.3228 8.39466 58.9502 0 48.622 0Z" fill="black"/>
<path d="M152.598 56.25C152.598 45.8947 160.971 37.5 171.299 37.5C181.627 37.5 190 45.8947 190 56.25C190 66.6053 181.627 75 171.299 75C160.971 75 152.598 66.6053 152.598 56.25Z" fill="#E97CD7"/>
<path fill-rule="evenodd" clip-rule="evenodd" d="M156.339 56.25C156.339 64.5343 163.037 71.25 171.299 71.25C179.562 71.25 186.26 64.5343 186.26 56.25C186.26 47.9657 179.562 41.25 171.299 41.25C163.037 41.25 156.339 47.9657 156.339 56.25ZM171.299 37.5C160.971 37.5 152.598 45.8947 152.598 56.25C152.598 66.6053 160.971 75 171.299 75C181.627 75 190 66.6053 190 56.25C190 45.8947 181.627 37.5 171.299 37.5Z" fill="black"/>
<path d="M71.811 104.25C71.811 93.8947 80.1837 85.5 90.5118 85.5C100.84 85.5 109.213 93.8947 109.213 104.25C109.213 114.605 100.84 123 90.5118 123C80.1837 123 71.811 114.605 71.811 104.25Z" fill="#9EEE97"/>
<path fill-rule="evenodd" clip-rule="evenodd" d="M75.5512 104.25C75.5512 112.534 82.2493 119.25 90.5118 119.25C98.7743 119.25 105.472 112.534 105.472 104.25C105.472 95.9657 98.7743 89.25 90.5118 89.25C82.2493 89.25 75.5512 95.9657 75.5512 104.25ZM90.5118 85.5C80.1837 85.5 71.811 93.8947 71.811 104.25C71.811 114.605 80.1837 123 90.5118 123C100.84 123 109.213 114.605 109.213 104.25C109.213 93.8947 100.84 85.5 90.5118 85.5Z" fill="black"/>
<path d="M139.134 174.75C139.134 164.395 147.506 156 157.835 156C168.163 156 176.535 164.395 176.535 174.75C176.535 185.105 168.163 193.5 157.835 193.5C147.506 193.5 139.134 185.105 139.134 174.75Z" fill="#F6FF8E"/>
<path fill-rule="evenodd" clip-rule="evenodd" d="M142.874 174.75C142.874 183.034 149.572 189.75 157.835 189.75C166.097 189.75 172.795 183.034 172.795 174.75C172.795 166.466 166.097 159.75 157.835 159.75C149.572 159.75 142.874 166.466 142.874 174.75ZM157.835 156C147.506 156 139.134 164.395 139.134 174.75C139.134 185.105 147.506 193.5 157.835 193.5C168.163 193.5 176.535 185.105 176.535 174.75C176.535 164.395 168.163 156 157.835 156Z" fill="black"/>
<path d="M0 161.25C0 150.895 8.37263 142.5 18.7008 142.5C29.0289 142.5 37.4016 150.895 37.4016 161.25C37.4016 171.605 29.0289 180 18.7008 180C8.37263 180 0 171.605 0 161.25Z" fill="#91C5EB"/>
<path fill-rule="evenodd" clip-rule="evenodd" d="M3.74016 161.25C3.74016 169.534 10.4383 176.25 18.7008 176.25C26.9633 176.25 33.6614 169.534 33.6614 161.25C33.6614 152.966 26.9633 146.25 18.7008 146.25C10.4383 146.25 3.74016 152.966 3.74016 161.25ZM18.7008 142.5C8.37263 142.5 0 150.895 0 161.25C0 171.605 8.37263 180 18.7008 180C29.0289 180 37.4016 171.605 37.4016 161.25C37.4016 150.895 29.0289 142.5 18.7008 142.5Z" fill="black"/>
<path d="M73.3071 242.25C73.3071 231.895 81.6797 223.5 92.0079 223.5C102.336 223.5 110.709 231.895 110.709 242.25C110.709 252.605 102.336 261 92.0079 261C81.6797 261 73.3071 252.605 73.3071 242.25Z" fill="#FF7777"/>
<path fill-rule="evenodd" clip-rule="evenodd" d="M77.0472 242.25C77.0472 250.534 83.7453 257.25 92.0079 257.25C100.27 257.25 106.969 250.534 106.969 242.25C106.969 233.966 100.27 227.25 92.0079 227.25C83.7453 227.25 77.0472 233.966 77.0472 242.25ZM92.0079 223.5C81.6797 223.5 73.3071 231.895 73.3071 242.25C73.3071 252.605 81.6797 261 92.0079 261C102.336 261 110.709 252.605 110.709 242.25C110.709 231.895 102.336 223.5 92.0079 223.5Z" fill="black"/>
<path fill-rule="evenodd" clip-rule="evenodd" d="M60.557 52.7989C59.7149 48.1771 57.6786 42.9268 52.8295 36.6243L56.3831 33.8757C61.6324 40.6982 63.9908 46.6042 64.9721 51.9902C65.7724 56.3829 65.6371 60.4028 65.5165 63.9898C65.4917 64.726 65.4675 65.444 65.4522 66.1432C65.3608 70.3143 65.5595 73.9879 67.3676 77.8532C69.1834 81.7351 72.7441 86.0557 79.8521 91.1723L77.2345 94.8277C69.7559 89.4443 65.5557 84.5774 63.3041 79.764C61.0448 74.934 60.8695 70.4044 60.9651 66.0443C60.9824 65.2561 61.0078 64.4781 61.0331 63.7049C61.1496 60.137 61.2628 56.673 60.557 52.7989ZM127.12 93.6426C121.774 95.9929 114.765 97.673 104.854 98.2463L104.595 93.7537C114.133 93.202 120.588 91.6009 125.317 89.5215C130.021 87.4534 133.144 84.8584 135.983 82.1023C136.679 81.4268 137.375 80.7215 138.085 80.0024C140.21 77.8502 142.456 75.5752 145.172 73.6094C148.911 70.9025 153.582 68.7124 160.448 67.5323L161.206 71.9677C154.981 73.0376 150.956 74.9725 147.799 77.2578C145.41 78.9873 143.535 80.8856 141.486 82.9597C140.728 83.7273 139.946 84.5191 139.105 85.3352C136.053 88.2979 132.491 91.281 127.12 93.6426Z" fill="black"/>
<path fill-rule="evenodd" clip-rule="evenodd" d="M173.533 133.708C172.489 141.158 169.601 149.465 163.486 159.429L159.664 157.071C165.517 147.535 168.146 139.811 169.089 133.081C170.033 126.344 169.31 120.457 168.248 114.489C168.034 113.282 167.805 112.073 167.575 110.855C165.515 99.9686 163.324 88.3824 169.967 71.9067L174.128 73.5933C167.993 88.8076 169.953 99.2131 171.987 110.019C172.217 111.238 172.447 112.462 172.667 113.699C173.756 119.824 174.576 126.265 173.533 133.708ZM65.6176 162.753C58.9636 161.409 50.2456 161.064 36.9319 162.733L36.3752 158.267C49.9906 156.561 59.2254 156.872 66.5035 158.341C73.4728 159.748 78.5323 162.201 83.6845 164.699C83.9165 164.811 84.1486 164.924 84.3811 165.036C89.7603 167.64 95.4641 170.314 104.042 172.225C112.646 174.142 124.231 175.309 141.305 174.751L141.451 179.249C124.116 179.816 112.137 178.639 103.069 176.618C93.9749 174.592 87.8972 171.735 82.4299 169.089C82.2285 168.991 82.028 168.894 81.8285 168.797C76.6295 166.278 72.0208 164.045 65.6176 162.753Z" fill="black"/>
</svg>
