<svg width="25" height="25" viewBox="0 0 25 25" fill="none" xmlns="http://www.w3.org/2000/svg">
<rect width="25" height="25" fill="black"/>
<path d="M10.04 18H7.64V7.28H13.56C14.4453 7.28 15.1973 7.408 15.816 7.664C16.4347 7.90933 16.904 8.272 17.224 8.752C17.544 9.232 17.704 9.81333 17.704 10.496C17.704 11.0827 17.592 11.584 17.368 12C17.144 12.416 16.808 12.752 16.36 13.008C15.912 13.2533 15.352 13.408 14.68 13.472V13.6C15.16 13.728 15.5173 13.92 15.752 14.176C15.9867 14.432 16.2053 14.7467 16.408 15.12L17.96 18H15.176L13.704 15.216C13.5547 14.9387 13.4 14.72 13.24 14.56C13.08 14.4 12.872 14.288 12.616 14.224C12.3707 14.1493 12.04 14.112 11.624 14.112H10.04V18ZM10.04 9.44V12.304H13.544C14.1093 12.304 14.5253 12.208 14.792 12.016C15.0587 11.8133 15.192 11.4293 15.192 10.864C15.192 10.3307 15.0587 9.96267 14.792 9.76C14.5253 9.54667 14.1093 9.44 13.544 9.44H10.04Z" fill="white"/>
</svg>
