<svg width="96" height="25" viewBox="0 0 96 25" fill="none" xmlns="http://www.w3.org/2000/svg">
<rect width="96" height="25" fill="black"/>
<path d="M11.04 18H8.64V7.28H14.56C15.4453 7.28 16.1973 7.408 16.816 7.664C17.4347 7.90933 17.904 8.272 18.224 8.752C18.544 9.232 18.704 9.81333 18.704 10.496C18.704 11.0827 18.592 11.584 18.368 12C18.144 12.416 17.808 12.752 17.36 13.008C16.912 13.2533 16.352 13.408 15.68 13.472V13.6C16.16 13.728 16.5173 13.92 16.752 14.176C16.9867 14.432 17.2053 14.7467 17.408 15.12L18.96 18H16.176L14.704 15.216C14.5547 14.9387 14.4 14.72 14.24 14.56C14.08 14.4 13.872 14.288 13.616 14.224C13.3707 14.1493 13.04 14.112 12.624 14.112H11.04V18ZM11.04 9.44V12.304H14.544C15.1093 12.304 15.5253 12.208 15.792 12.016C16.0587 11.8133 16.192 11.4293 16.192 10.864C16.192 10.3307 16.0587 9.96267 15.792 9.76C15.5253 9.54667 15.1093 9.44 14.544 9.44H11.04ZM22.1181 18H19.7181V7.28H22.1181V18ZM28.7901 18H20.3901V15.84H28.7901V18ZM28.5501 13.68H20.3901V11.536H28.5501V13.68ZM28.7901 9.44H20.3901V7.28H28.7901V9.44ZM35.4744 15.04H30.7064V12.88H35.2184C35.8904 12.88 36.381 12.7627 36.6904 12.528C37.0104 12.2827 37.1704 11.824 37.1704 11.152C37.1704 10.5013 37.0104 10.0533 36.6904 9.808C36.381 9.56267 35.8904 9.44 35.2184 9.44H30.7064V7.28H35.4744C36.3064 7.28 37.0264 7.43467 37.6344 7.744C38.2424 8.04267 38.7117 8.48 39.0424 9.056C39.3837 9.632 39.5544 10.3307 39.5544 11.152C39.5544 11.9733 39.3837 12.6773 39.0424 13.264C38.7117 13.84 38.2424 14.2827 37.6344 14.592C37.0264 14.8907 36.3064 15.04 35.4744 15.04ZM32.2744 18H29.8744V7.28H32.2744V18ZM45.9256 18.16C44.7523 18.16 43.7283 17.936 42.8536 17.488C41.9896 17.0293 41.323 16.3893 40.8536 15.568C40.395 14.736 40.1656 13.76 40.1656 12.64C40.1656 11.52 40.395 10.5493 40.8536 9.728C41.323 8.896 41.9896 8.256 42.8536 7.808C43.7283 7.34933 44.7523 7.12 45.9256 7.12C47.1416 7.12 48.1816 7.34933 49.0456 7.808C49.9096 8.256 50.5763 8.896 51.0456 9.728C51.515 10.5493 51.7496 11.52 51.7496 12.64C51.7496 13.76 51.515 14.736 51.0456 15.568C50.5763 16.3893 49.9096 17.0293 49.0456 17.488C48.1816 17.936 47.1416 18.16 45.9256 18.16ZM45.9256 15.856C46.715 15.856 47.3443 15.7547 47.8136 15.552C48.2936 15.3387 48.6403 14.9973 48.8536 14.528C49.0776 14.0587 49.1896 13.4293 49.1896 12.64C49.1896 11.84 49.0776 11.2107 48.8536 10.752C48.6403 10.2827 48.2936 9.94667 47.8136 9.744C47.3443 9.53067 46.715 9.424 45.9256 9.424C45.147 9.424 44.523 9.53067 44.0536 9.744C43.5843 9.94667 43.243 10.2827 43.0296 10.752C42.8163 11.2107 42.7096 11.84 42.7096 12.64C42.7096 13.4293 42.8163 14.0587 43.0296 14.528C43.243 14.9973 43.5843 15.3387 44.0536 15.552C44.523 15.7547 45.147 15.856 45.9256 15.856ZM57.6603 18.16C56.5829 18.16 55.6656 18.0213 54.9083 17.744C54.1509 17.456 53.5749 17.0347 53.1803 16.48C52.7856 15.9147 52.5883 15.216 52.5883 14.384V14.288H54.9883V14.576C54.9883 14.9067 55.0576 15.1733 55.1963 15.376C55.3456 15.5787 55.6123 15.728 55.9963 15.824C56.3803 15.92 56.9349 15.968 57.6603 15.968C58.3003 15.968 58.7909 15.936 59.1323 15.872C59.4736 15.7973 59.7083 15.6853 59.8363 15.536C59.9643 15.3867 60.0283 15.1947 60.0283 14.96C60.0283 14.6293 59.9163 14.3893 59.6923 14.24C59.4789 14.0907 59.1003 13.968 58.5563 13.872L55.5483 13.44C54.9083 13.3333 54.3589 13.1573 53.9003 12.912C53.4523 12.6667 53.1056 12.3413 52.8603 11.936C52.6149 11.52 52.4923 11.0187 52.4923 10.432C52.4923 10.0267 52.5776 9.62667 52.7483 9.232C52.9296 8.83733 53.2123 8.48533 53.5963 8.176C53.9803 7.856 54.4816 7.6 55.1003 7.408C55.7296 7.216 56.4976 7.12 57.4043 7.12C58.5029 7.12 59.4043 7.28 60.1083 7.6C60.8229 7.90933 61.3563 8.352 61.7083 8.928C62.0603 9.49333 62.2363 10.1493 62.2363 10.896V10.992H59.8203V10.768C59.8203 10.4267 59.7456 10.1493 59.5963 9.936C59.4576 9.72267 59.1963 9.568 58.8123 9.472C58.4283 9.36533 57.8789 9.312 57.1643 9.312C56.5883 9.312 56.1349 9.34933 55.8043 9.424C55.4843 9.49867 55.2549 9.61067 55.1163 9.76C54.9776 9.90933 54.9083 10.1013 54.9083 10.336C54.9083 10.5387 54.9509 10.7093 55.0363 10.848C55.1216 10.976 55.2549 11.0773 55.4363 11.152C55.6176 11.2267 55.8576 11.2907 56.1562 11.344L59.1643 11.824C59.9643 11.952 60.5989 12.16 61.0683 12.448C61.5483 12.736 61.8949 13.088 62.1083 13.504C62.3216 13.9093 62.4283 14.3573 62.4283 14.848C62.4283 15.424 62.2683 15.968 61.9483 16.48C61.6283 16.9813 61.1163 17.3867 60.4123 17.696C59.7083 18.0053 58.7909 18.16 57.6603 18.16ZM65.8056 18H63.4056V7.28H65.8056V18ZM69.4619 18H67.0619V7.28H69.4619V18ZM75.8939 14H67.7339V11.856H75.8939V14ZM76.1339 9.44H67.7339V7.28H76.1339V9.44ZM83.1236 18H80.7236V7.28H83.1236V18ZM87.1076 9.44H76.7396V7.28H87.1076V9.44Z" fill="white"/>
</svg>
