<svg width="24" height="17" viewBox="0 0 24 17" fill="none" xmlns="http://www.w3.org/2000/svg">
<path fill-rule="evenodd" clip-rule="evenodd" d="M0.443665 15.5C0.443665 14.6716 1.11524 14 1.94366 14H21.9437C22.7721 14 23.4437 14.6716 23.4437 15.5C23.4437 16.3284 22.7721 17 21.9437 17H1.94366C1.11524 17 0.443665 16.3284 0.443665 15.5Z" fill="black"/>
<path fill-rule="evenodd" clip-rule="evenodd" d="M10.4437 8.5014C10.4437 7.67298 11.1152 7.0014 11.9437 7.0014L21.9437 7.0014C22.7721 7.0014 23.4437 7.67298 23.4437 8.5014C23.4437 9.32983 22.7721 10.0014 21.9437 10.0014L11.9437 10.0014C11.1152 10.0014 10.4437 9.32983 10.4437 8.5014Z" fill="black"/>
<path fill-rule="evenodd" clip-rule="evenodd" d="M0.443665 1.5C0.443665 0.671573 1.11524 0 1.94366 0H21.9437C22.7721 0 23.4437 0.671573 23.4437 1.5C23.4437 2.32843 22.7721 3 21.9437 3H1.94366C1.11524 3 0.443665 2.32843 0.443665 1.5Z" fill="black"/>
</svg>
