<svg width="616" height="1024" viewBox="0 0 616 1024" fill="none" xmlns="http://www.w3.org/2000/svg">
<g clip-path="url(#clip0_123_724)">
<path d="M-302 0.041687H1063V1024.04H-302V0.041687Z" fill="#DCDCDB"/>
<path d="M-302 0.041687H1063V1024.04H-302V0.041687Z" fill="#DCDCDB"/>
<path fill-rule="evenodd" clip-rule="evenodd" d="M1063 0.0412598V1024.04H559.602L1.71156 338.021L436.165 0.0412598H1063Z" fill="#EAE8E3"/>
<path fill-rule="evenodd" clip-rule="evenodd" d="M81.9053 565.801C199.226 565.801 294.333 470.671 294.333 353.321C294.333 235.972 199.226 140.841 81.9053 140.841C-35.4155 140.841 -130.523 235.972 -130.523 353.321C-130.523 470.671 -35.4155 565.801 81.9053 565.801Z" fill="#BFCBBA"/>
<path d="M510.511 353.87L944.737 102.242L979.017 161.426L544.79 413.054L510.511 353.87Z" fill="#DC4618"/>
<path fill-rule="evenodd" clip-rule="evenodd" d="M442.965 764.911L267.301 548.613L224.964 576.737L400.735 798.577L442.965 764.911Z" fill="#DC4618"/>
<path fill-rule="evenodd" clip-rule="evenodd" d="M-155.926 839.118L51.5455 687.506L32.4873 660.073L-177.812 796.115L-155.926 839.118Z" fill="#EAE8E3"/>
<path d="M220.047 707.455L297.473 822.692L279.622 834.691L202.195 719.454L220.047 707.455Z" fill="#60BEBF"/>
<path fill-rule="evenodd" clip-rule="evenodd" d="M403.196 590.549L322.496 492.255L288.135 512.041L366.772 619.478L403.196 590.549Z" fill="#3A8EAA"/>
<path fill-rule="evenodd" clip-rule="evenodd" d="M971.325 -147L134.381 438.575L175.643 492.508L1043.35 -57.5323L971.325 -147Z" fill="#2A3E4C"/>
<path fill-rule="evenodd" clip-rule="evenodd" d="M187.16 502.981L476.775 344.561L497.634 382.136L211.474 539.001L187.16 502.981Z" fill="#E5AB17"/>
<path d="M-204.745 945.256L43.6524 736.468L71.296 769.372L-177.101 978.16L-204.745 945.256Z" fill="#EAE8E3"/>
<path fill-rule="evenodd" clip-rule="evenodd" d="M-32.5434 776.141L71.0151 693.418L90.6995 715.085L-12.859 797.809L-32.5434 776.141Z" fill="#E5AB17"/>
<path d="M650.373 386.274L937.623 228.533L948.666 250.13L661.415 407.871L650.373 386.274Z" fill="#28203D"/>
<path fill-rule="evenodd" clip-rule="evenodd" d="M674.851 205.77L952.354 38.4234L964.876 59.1977L687.372 226.545L674.851 205.77Z" fill="#BFCBBA"/>
<path d="M604.994 453.2L893.555 305.591L896.346 311.049L607.785 458.658L604.994 453.2Z" fill="#849C9B"/>
<path d="M-98.214 189.481L404.766 822.937L390.479 834.287L-112.502 200.832L-98.214 189.481Z" fill="#28203D"/>
<path fill-rule="evenodd" clip-rule="evenodd" d="M230.908 659.735L-107.261 249.529L-160.206 284.002L172.569 703.541L230.908 659.735Z" fill="#849C9B"/>
<path fill-rule="evenodd" clip-rule="evenodd" d="M552.311 648.657C570.298 644.342 581.4 626.337 577.109 608.442C572.818 590.548 554.758 579.54 536.771 583.855C518.784 588.171 507.681 606.176 511.972 624.07C516.263 641.965 534.324 652.973 552.311 648.657Z" fill="#849C9B"/>
<path fill-rule="evenodd" clip-rule="evenodd" d="M-141.995 642.813C-109.602 635.042 -89.6078 602.617 -97.3358 570.391C-105.064 538.165 -137.588 518.341 -169.98 526.113C-202.373 533.885 -222.367 566.309 -214.639 598.535C-206.911 630.761 -174.387 650.585 -141.995 642.813Z" fill="#EAE8E3"/>
<path fill-rule="evenodd" clip-rule="evenodd" d="M118.646 386.322C132.739 382.94 141.438 368.834 138.076 354.814C134.714 340.793 120.564 332.169 106.471 335.55C92.3782 338.931 83.6795 353.038 87.0416 367.058C90.4037 381.078 104.554 389.703 118.646 386.322Z" fill="#DC4618"/>
<path fill-rule="evenodd" clip-rule="evenodd" d="M-23.8804 641.627C-9.85616 638.262 -1.1996 624.224 -4.54541 610.272C-7.89122 596.32 -21.9724 587.737 -35.9966 591.102C-50.0208 594.466 -58.6774 608.505 -55.3316 622.457C-51.9858 636.409 -37.9046 644.992 -23.8804 641.627Z" fill="#BFCBBA"/>
<path d="M131.496 414.047L370.206 249.181L368.182 246.25L129.472 411.116L131.496 414.047Z" fill="#28203D"/>
<path d="M615.397 777.919L738.857 922.701L743.4 918.824L619.94 774.043L615.397 777.919Z" fill="#28203D"/>
<path d="M-161.771 60.2986L-38.2441 214.59L-35.4642 212.363L-158.992 58.0719L-161.771 60.2986Z" fill="#28203D"/>
<path d="M-78.3824 807.127L-235.311 934.047L-233.071 936.817L-76.1432 809.897L-78.3824 807.127Z" fill="#28203D"/>
<path fill-rule="evenodd" clip-rule="evenodd" d="M728.628 649.934L695.53 611.85L692.57 614.424L725.668 652.508L687.594 685.614L690.167 688.574L728.241 655.468L761.339 693.553L764.299 690.979L731.201 652.895L769.276 619.789L766.703 616.828L728.628 649.934Z" fill="#DC4618"/>
<path fill-rule="evenodd" clip-rule="evenodd" d="M-155.46 584.56L-172.504 564.948L-174.029 566.273L-156.985 585.885L-176.592 602.933L-175.267 604.458L-155.66 587.41L-138.615 607.022L-137.091 605.696L-154.135 586.084L-134.528 569.036L-135.853 567.511L-155.46 584.56Z" fill="#DC4618"/>
</g>
<defs>
<clipPath id="clip0_123_724">
<rect width="616" height="1024" fill="white"/>
</clipPath>
</defs>
</svg>
